<?xml version="1.0" encoding="iso-8859-1"?>
<!-- Uploaded to: SVG Repo, www.svgrepo.com, Generator: SVG Repo Mixer Tools -->
<svg fill="#ffffff" version="1.1" id="Layer_1" xmlns="http://www.w3.org/2000/svg" xmlns:xlink="http://www.w3.org/1999/xlink" 
	 viewBox="0 0 512 512" xml:space="preserve">
<g>
	<g>
		<path d="M110.431,160.984H10.039C4.495,160.984,0,165.479,0,171.023V341.69c0,5.544,4.495,10.039,10.039,10.039h100.392
			c5.544,0,10.039-4.495,10.039-10.039V171.023C120.471,165.479,115.976,160.984,110.431,160.984z M100.392,331.65H20.078V181.062
			h80.314V331.65z"/>
	</g>
</g>
<g>
	<g>
		<path d="M285.985,61.18c-3.534-1.642-7.387-1.113-10.372,1.382L154.672,162.954c-2.289,1.907-4.083,4.73-4.083,7.711v170.667
			c0,2.98,1.951,5.804,4.24,7.711l120.784,100.392c1.838,1.534,4.279,2.328,6.583,2.328c1.446,0,2.353-0.314,3.711-0.946
			c3.524-1.652,5.23-5.196,5.23-9.093V70.273C291.137,66.376,289.51,62.832,285.985,61.18z M271.059,420.288l-100.392-83.657
			V175.366l100.392-83.657V420.288z"/>
	</g>
</g>
<g>
	<g>
		<rect x="341.333" y="130.863" width="140.549" height="20.078"/>
	</g>
</g>
<g>
	<g>
		<rect x="341.333" y="371.804" width="140.549" height="20.078"/>
	</g>
</g>
<g>
	<g>
		<rect x="341.333" y="201.137" width="170.667" height="20.078"/>
	</g>
</g>
<g>
	<g>
		<rect x="341.333" y="301.529" width="170.667" height="20.078"/>
	</g>
</g>
</svg>